<?xml version="1.0" standalone="no"?><!DOCTYPE svg PUBLIC "-//W3C//DTD SVG 1.1//EN" "http://www.w3.org/Graphics/SVG/1.1/DTD/svg11.dtd"><svg t="1729561203522" class="icon" viewBox="0 0 1024 1024" version="1.1" xmlns="http://www.w3.org/2000/svg" p-id="1626" xmlns:xlink="http://www.w3.org/1999/xlink" width="16" height="16"><path d="M667.36 47.30666667L656 42.66666667H293.28a60 60 0 0 0-64 56 66.24 66.24 0 0 0 0 9.76v146.08h-51.36a75.68 75.68 0 0 0-65.76 80v415.2h117.6V938.66666667H912V311.62666667z m-13.92 66.24l174.4 188.16h-144a37.76 37.76 0 0 1-34.88-28.16v-160zM161.44 334.82666667c0-11.68 4.8-32 18.72-32H512c14.24 0 23.68 20.96 23.68 32v368H160zM276.8 890.66666667v-140.96h305.92V334.82666667a77.76 77.76 0 0 0-70.56-80H276.8V108.58666667c0-13.76 0-18.72 16-18.72h313.6v183.68a81.6 81.6 0 0 0 80 75.68h178.56V890.66666667z" fill="#3d4757" p-id="1627"></path><path d="M457.92 379.62666667a23.04 23.04 0 0 0-16-7.2 21.44 21.44 0 0 0-16 7.2l-77.76 82.4-77.92-80a22.24 22.24 0 0 0-32-0.96l-1.12 0.96a22.88 22.88 0 0 0-0.8 32l0.8 0.8 77.44 82.4-77.6 83.04a22.88 22.88 0 0 0-0.8 32l0.8 0.8a21.12 21.12 0 0 0 16 6.72 22.24 22.24 0 0 0 16-6.72l77.44-80 77.76 80a23.36 23.36 0 0 0 33.6-32l-0.96-0.8-77.28-82.56 77.28-82.4a25.28 25.28 0 0 0 1.12-35.68z" fill="#3d4757" p-id="1628"></path></svg>