<?xml version="1.0" standalone="no"?><!DOCTYPE svg PUBLIC "-//W3C//DTD SVG 1.1//EN" "http://www.w3.org/Graphics/SVG/1.1/DTD/svg11.dtd"><svg t="1729561192333" class="icon" viewBox="0 0 1024 1024" version="1.1" xmlns="http://www.w3.org/2000/svg" p-id="1313" xmlns:xlink="http://www.w3.org/1999/xlink" width="16" height="16"><path d="M667.2 47.78666667L656 42.66666667H293.44a59.68 59.68 0 0 0-64 55.52 75.2 75.2 0 0 0 0 10.4v146.4h-51.52a75.52 75.52 0 0 0-65.76 80v415.04h117.76V938.66666667H912V311.62666667z m-13.76 65.76L827.2 302.18666667h-144c-14.24 0-33.28-16-33.28-28.16v-160zM160 702.98666667v-368c0-12.16 4.48-33.12 18.72-33.12H512c14.08 0 23.52 20.96 23.52 33.12v368zM864.96 893.86666667H276.96v-144h305.76V335.30666667a77.76 77.76 0 0 0-70.56-80h-235.2V108.74666667c0-13.92 0-18.88 16-18.88h311.52v184.16a81.76 81.76 0 0 0 80 75.2h177.76v544z" fill="#3d4757" p-id="1314"></path><path d="M441.44 446.02666667a21.28 21.28 0 0 0-21.92 20.8 17.44 17.44 0 0 0 0 2.88v126.72l-64-84.64a32 32 0 0 0-44.32-6.08 35.52 35.52 0 0 0-5.92 6.08l-60.48 84.64v-126.72a21.44 21.44 0 0 0-18.88-23.68 14.08 14.08 0 0 0-3.68 0 21.28 21.28 0 0 0-21.92 20.8v171.68a32 32 0 0 0 52.48 23.84L334.4 554.66666667l76.32 103.52 4.48 4.96a34.56 34.56 0 0 0 19.52 6.72 48 48 0 0 0 16-2.24 30.72 30.72 0 0 0 17.28-28.32V469.22666667a28.64 28.64 0 0 0-26.56-23.2z" fill="#3d4757" p-id="1315"></path></svg>